<svg xmlns="http://www.w3.org/2000/svg" viewBox="0 0 100 100" fill="currentColor" width="30" height="30" style="color: rgb(222, 124, 0); direction: ltr;"><path d="M100 22.504a62.74 62.74 0 00-3.026-19.727A4.17 4.17 0 0091.215.418a69.285 69.285 0 00-17.932 12.96 77.442 77.442 0 00-7.582 8.584 28.95 28.95 0 00-15.527-4.217h-.348a28.861 28.861 0 00-15.528 4.217 77.32 77.32 0 00-7.582-8.584A69.486 69.486 0 008.784.418a4.17 4.17 0 00-5.759 2.359A62.74 62.74 0 00-.001 22.504c-.003 3.126.21 6.25.634 9.346a57.83 57.83 0 002.306 10.109 6.06 6.06 0 01.112 3.524 47.033 47.033 0 00-1.663 12.553 44.17 44.17 0 003.8 18.408 25.26 25.26 0 002.388 4.271 32.25 32.25 0 002.233 2.87c2.908 3.275 10.506 6.015 13.48 7.154 11.6 4.44 13.3 7.65 22.477 8.895 1.773.24 3.25.33 4.232.366a43.93 43.93 0 004.231-.366c9.18-1.244 10.877-4.454 22.478-8.895 2.974-1.14 10.572-3.88 13.48-7.154a32.24 32.24 0 002.233-2.87 25.407 25.407 0 002.387-4.27 44.142 44.142 0 003.8-18.408 46.97 46.97 0 00-1.663-12.553 6.06 6.06 0 01.112-3.524 57.767 57.767 0 002.306-10.11c.427-3.097.64-6.22.638-9.346z"></path></svg>