<svg xmlns="http://www.w3.org/2000/svg" viewBox="0 0 7.938 7.938" fill="currentColor" width="14" height="14" style="color: rgb(222, 124, 0); direction: ltr;"><path d="M3.969 0a1.172 1.172 0 01-.344.593 1.159 1.159 0 01-1.64-.064 1.172 1.172 0 010 .69 1.162 1.162 0 01-1.456.765 1.172 1.172 0 01.347.596A1.164 1.164 0 010 3.969a1.172 1.172 0 01.593.344 1.159 1.159 0 01-.064 1.64 1.162 1.162 0 011.455 1.455 1.162 1.162 0 011.985.53 1.172 1.172 0 01.344-.593 1.159 1.159 0 011.64.063 1.162 1.162 0 011.455-1.455 1.162 1.162 0 01.53-1.984 1.172 1.172 0 01-.596-.344 1.159 1.159 0 01.064-1.64 1.172 1.172 0 01-.688 0A1.162 1.162 0 015.953.528a1.172 1.172 0 01-.595.347A1.164 1.164 0 013.968 0zm1.375 2.686l.432.428-2.268 2.268L2.35 4.223l.428-.429.73.728z"></path></svg>